<svg width="28" height="34" viewBox="0 0 28 34" fill="none" xmlns="http://www.w3.org/2000/svg">
<path d="M13.1718 0.586428C12.7168 1.33086 12.6341 2.22005 12.965 2.84041C13.3165 3.48145 13.5853 3.29534 13.5853 2.38548C13.5853 1.88919 13.6681 1.59969 13.7921 1.6824C13.9162 1.74444 13.9989 2.15801 13.9989 2.57159L14.0196 3.3367L14.4125 2.84041C14.9295 2.24073 14.9295 1.66172 14.4538 0.751858C13.9369 -0.199364 13.6681 -0.240722 13.1718 0.586428Z" fill="#56AFBF"/>
<path d="M10.6076 2.34411C10.3595 2.98515 10.5042 4.01909 10.9178 4.55673C11.3934 5.15642 12.0551 5.30117 11.8483 4.76352C11.7863 4.57741 11.6622 4.18452 11.6002 3.89501C11.4968 3.39872 11.5588 3.44008 11.9931 4.1018C12.5307 4.94963 12.7582 4.92895 12.7582 4.06044C12.7582 3.33669 12.0965 2.50954 11.3314 2.24071C10.8351 2.07528 10.6903 2.09596 10.6076 2.34411Z" fill="#56AFBF"/>
<path d="M15.922 2.40614C15.1569 2.86107 14.826 3.39872 14.826 4.14315C14.826 4.88759 15.1569 4.82555 15.5705 3.9984C15.7773 3.64686 15.9634 3.44008 16.0047 3.58483C16.0461 3.72958 16.0047 4.01908 15.8807 4.24655C15.3637 5.17709 15.7979 5.38388 16.5837 4.57741C17.1007 4.08112 17.2661 3.06786 16.9766 2.32342C16.8112 1.90985 16.7285 1.90985 15.922 2.40614Z" fill="#56AFBF"/>
<path d="M6.67864 2.34415C6.36846 2.65433 6.57525 3.81234 6.98882 4.18456C7.44376 4.57745 7.44376 4.57745 7.299 3.99845C7.23697 3.68827 7.21629 3.44012 7.25765 3.44012C7.31968 3.44012 7.50579 3.68827 7.67122 3.99845L7.9814 4.57745L8.00208 3.83302C8.00208 3.37809 7.85733 2.96451 7.65054 2.7784C7.1129 2.32347 6.84407 2.1994 6.67864 2.34415Z" fill="#56AFBF"/>
<path d="M20.0991 2.71634C19.6028 3.21262 19.334 4.66014 19.7889 4.37063C19.913 4.3086 19.9957 4.12249 19.9957 3.95706C19.9957 3.79163 20.0991 3.60552 20.2232 3.52281C20.4093 3.41941 20.43 3.54348 20.3266 3.93638C20.1818 4.55674 20.2439 4.5981 20.6988 4.14317C21.071 3.79163 21.1537 2.19937 20.8229 2.19937C20.6988 2.19937 20.3679 2.42683 20.0991 2.71634Z" fill="#56AFBF"/>
<path d="M8.95335 3.48149C8.58113 3.99845 8.5191 4.8256 8.82928 5.30121C8.99471 5.54936 9.03607 5.48732 9.03607 5.03239C9.03607 4.34999 9.3876 4.28796 9.51168 4.929C9.59439 5.40461 9.59439 5.40461 9.80118 4.88764C9.94593 4.55678 9.94593 4.18456 9.82186 3.81234C9.53235 3.02655 9.32557 2.94384 8.95335 3.48149Z" fill="#56AFBF"/>
<path d="M17.9485 3.37803C17.6383 3.99839 17.659 4.99097 18.0105 5.28048C18.2587 5.48726 18.3207 5.42523 18.4034 4.84622L18.4861 4.16382L18.5068 4.84622C18.5275 5.23912 18.6309 5.48726 18.755 5.40455C19.1065 5.19776 18.9824 3.93636 18.5689 3.41939L18.1966 2.94378L17.9485 3.37803Z" fill="#56AFBF"/>
<path d="M4.96234 4.41199C4.52808 4.57742 5.1898 5.61136 5.91356 5.92154C6.76138 6.27308 7.21632 5.9629 6.43053 5.54932C6.09967 5.38389 5.93424 5.19779 6.07899 5.15643C6.22374 5.11507 6.51324 5.17711 6.74071 5.30118C7.29903 5.59068 7.31971 5.23914 6.76138 4.68082C6.36849 4.28792 5.54134 4.16385 4.96234 4.41199Z" fill="#56AFBF"/>
<path d="M20.947 4.70148C20.306 5.19777 20.2233 5.63203 20.8436 5.30117C21.0711 5.1771 21.3606 5.11506 21.5054 5.15642C21.6501 5.19777 21.4847 5.38388 21.1331 5.56999C20.6575 5.81814 20.5748 5.92153 20.8436 6.02492C21.5881 6.31443 23.1596 5.0737 22.7874 4.47402C22.56 4.12248 21.526 4.24655 20.947 4.70148Z" fill="#56AFBF"/>
<path d="M13.5027 6.43851C13.358 7.55516 13.3993 8.32027 13.6888 9.8505C13.8956 10.9258 14.1024 12.4147 14.1644 13.1384C14.2471 14.3998 13.8956 16.2609 13.5854 16.2609C13.3166 16.2609 10.5457 13.2625 10.1941 12.5594C9.98733 12.1665 9.73919 11.0085 9.6358 9.80914C9.42901 7.74127 9.16019 6.81073 8.53983 6.02493C8.22964 5.65272 8.22964 5.69407 8.53983 6.5419C8.70525 7.05887 8.93272 8.5891 9.01544 9.95389C9.11883 11.3394 9.28426 12.6628 9.42901 12.911C9.55308 13.1591 9.61512 13.3659 9.5324 13.3659C9.11883 13.3659 6.47196 11.7736 5.52073 10.9465C4.90037 10.4088 4.52816 10.14 4.67291 10.3675C5.54141 11.5668 6.67874 12.4974 8.72593 13.7381C11.2281 15.227 12.0138 15.9301 12.5722 17.1915C12.9237 17.9566 13.1098 19.3627 12.8617 19.3627C12.7996 19.3627 12.0966 19.0319 11.3108 18.639C10.525 18.2461 9.18087 17.6877 8.33304 17.4189C6.4306 16.7986 5.7482 16.447 4.75562 15.5785L3.99051 14.9168L4.44544 15.5785C4.71427 15.9507 5.1692 16.4263 5.4587 16.6745C5.7482 16.902 5.95499 17.1294 5.91363 17.1708C5.83092 17.2535 4.0939 16.9847 3.34947 16.7572C3.08065 16.6745 2.99793 16.6952 3.14268 16.8399C3.43219 17.1087 5.08648 17.605 7.17503 18.0393C11.3935 18.9078 12.7583 20.1899 13.0685 23.6019C13.1925 25.008 12.8824 30.2604 12.6756 30.4879C12.6135 30.5499 12.0138 30.3018 11.3315 29.9296C9.9253 29.1851 7.31978 28.4614 6.0377 28.4614C5.25191 28.4614 4.4868 28.8956 4.4868 29.3506C4.4868 29.4333 5.21055 29.4953 6.09974 29.4953C8.6639 29.4953 12.6549 30.7567 13.5648 31.8527C13.7922 32.1422 13.9163 32.1008 14.578 31.5839C16.1496 30.3638 19.21 29.4953 21.9189 29.4953H23.3458L23.0563 29.0404C22.4152 28.0685 19.6029 28.42 16.7286 29.8262C15.8808 30.2397 15.1777 30.5292 15.1363 30.4879C14.8468 30.2191 14.5987 26.9725 14.6607 24.6565C14.7228 22.3818 14.8055 21.8235 15.1777 21.1204C16.1289 19.3214 17.3903 18.6183 20.9057 17.9152C22.8908 17.5223 24.9587 16.8399 24.9587 16.5918C24.9587 16.5504 24.5658 16.6331 24.0902 16.7572C23.5939 16.902 22.8288 17.0881 22.3946 17.1501L21.5881 17.2742L22.3946 16.4057C23.5939 15.1443 23.9455 14.5859 22.9942 15.4544C21.981 16.385 21.3813 16.6952 19.2721 17.3776C18.3622 17.6877 17.0181 18.2461 16.2943 18.639C14.9502 19.3627 14.6194 19.4041 14.6194 18.7837C14.6194 17.0674 16.0048 15.4131 18.7758 13.7588C20.823 12.5594 22.2084 11.4428 22.9322 10.4088C23.3251 9.8505 23.2217 9.89186 22.3118 10.719C21.3399 11.5875 18.9826 13.0557 18.8378 12.8903C18.7965 12.8489 18.8792 12.4767 19.0033 12.0424C19.1894 11.4634 19.1894 10.8638 19.0239 9.66439C18.7758 8.05145 18.9205 6.79005 19.3961 5.8595C19.5616 5.57 19.5616 5.48729 19.3961 5.59068C19.2721 5.6734 18.9619 6.12833 18.7344 6.60394C18.3415 7.34837 18.3002 7.65855 18.4449 9.29217C18.569 11.0085 18.5483 11.1946 18.0314 12.2286C17.5764 13.1798 15.8187 15.0202 15.3638 15.0202C15.3018 15.0202 15.2397 14.3791 15.2397 13.5727C15.2397 12.5594 15.095 11.7529 14.7434 10.8224C14.2885 9.60236 13.8749 7.53448 13.7302 5.71475C13.6888 5.19778 13.6268 5.40457 13.5027 6.43851Z" fill="#56AFBF"/>
<path d="M10.6076 5.83883C10.3181 6.56258 10.4835 7.9067 10.8971 8.36163C11.3313 8.81656 11.7242 8.96132 11.7242 8.65113C11.7242 8.56842 11.6415 8.1962 11.5381 7.82398C11.29 7.01751 11.5795 7.12091 12.0551 8.03077C12.3032 8.52706 12.4273 8.60978 12.5721 8.38231C13.0477 7.6172 12.4687 6.41783 11.3107 5.81815C10.7937 5.54932 10.711 5.54932 10.6076 5.83883Z" fill="#56AFBF"/>
<path d="M16.1288 5.9216C15.1363 6.52128 14.7434 7.22436 14.9295 8.13422L15.0742 8.92001L15.4671 8.1549C15.6739 7.74133 15.9427 7.32775 16.0668 7.26571C16.3356 7.10028 16.3356 7.16232 15.9634 8.17558L15.6739 9.02341L16.1288 8.79594C16.8526 8.40304 17.0801 7.94811 17.1007 6.95553C17.1007 5.63209 16.9146 5.42531 16.1288 5.9216Z" fill="#56AFBF"/>
<path d="M3.57683 6.58325C3.32869 7.57583 3.45276 8.32026 3.94905 8.79587L4.44534 9.27148L4.36262 8.36162C4.27991 7.47243 4.27991 7.47243 4.52805 8.13415C4.79687 8.94062 5.04502 9.00266 5.23113 8.32026C5.37588 7.74126 4.85891 6.64528 4.30059 6.3351C3.74226 6.0456 3.72158 6.06628 3.57683 6.58325Z" fill="#56AFBF"/>
<path d="M23.2423 6.35576C22.7254 6.64526 22.2704 7.80327 22.4152 8.36159C22.5392 8.85788 22.8908 8.98196 22.8908 8.5477C22.8908 8.40295 23.0355 8.09277 23.201 7.8653C23.3871 7.61716 23.4698 7.59648 23.4284 7.78259C23.3871 7.94802 23.2837 8.36159 23.2216 8.67177C23.0976 9.18874 23.1183 9.2301 23.4905 9.04399C24.0902 8.71313 24.4003 7.59648 24.1108 6.79001C23.8627 6.06625 23.8006 6.0249 23.2423 6.35576Z" fill="#56AFBF"/>
<path d="M6.49258 7.1002C6.24444 7.34835 6.34783 7.55514 6.84412 7.886C7.11294 8.0721 7.48516 8.13414 7.69195 8.0721C8.00213 7.94803 8.00213 7.90667 7.56788 7.65853L7.07159 7.38971L7.5472 7.36903C7.81602 7.36903 7.96077 7.28631 7.89873 7.16224C7.75398 6.93477 6.69937 6.87274 6.49258 7.1002Z" fill="#56AFBF"/>
<path d="M19.6856 7.16229C19.6236 7.28636 19.7683 7.36908 20.0165 7.36908C20.4714 7.36908 20.4714 7.36908 20.0785 7.67926C19.7063 7.96876 19.727 7.96876 20.3266 7.98944C21.009 7.98944 21.5674 7.53451 21.3399 7.16229C21.1745 6.89347 19.851 6.89347 19.6856 7.16229Z" fill="#56AFBF"/>
<path d="M1.1368 8.96132C0.681866 9.08539 0.681866 9.12675 1.11612 9.87118C1.55037 10.6156 2.48091 11.0085 3.10127 10.7397C3.53553 10.5329 3.53553 10.5329 2.87381 10.1814C2.04666 9.76779 2.1087 9.54032 2.93584 9.8505C3.72164 10.14 3.82503 9.9539 3.24603 9.33353C2.77041 8.83725 2.08802 8.71317 1.1368 8.96132Z" fill="#56AFBF"/>
<path d="M24.3383 9.33354C23.7593 9.9539 23.8627 10.14 24.6485 9.85051C25.455 9.54033 25.4963 9.72644 24.7312 10.2227C24.0902 10.6156 24.0902 10.6363 24.5244 10.7811C25.1861 10.9878 26.1787 10.5122 26.5302 9.78847C26.9231 9.04404 26.6957 8.81657 25.5583 8.81657C25.0414 8.81657 24.6898 8.96132 24.3383 9.33354Z" fill="#56AFBF"/>
<path d="M5.93427 9.80914C5.93427 10.5329 6.22377 11.0912 6.59598 11.0912C6.6787 11.0912 6.65802 10.8638 6.55463 10.5742C6.30648 9.93321 6.61666 9.89185 6.92684 10.5122C7.13363 10.9671 7.15431 10.9671 7.15431 10.3468C7.17499 9.70574 6.65802 9.02334 6.18241 9.02334C6.03766 9.02334 5.93427 9.3542 5.93427 9.80914Z" fill="#56AFBF"/>
<path d="M20.9057 9.1888C20.5128 9.43694 20.1613 10.2848 20.306 10.6363C20.4094 10.9465 20.4921 10.9051 20.7403 10.4709L21.0504 9.95391L20.9677 10.5122C20.8643 11.174 21.1332 11.2774 21.4433 10.6983C21.9603 9.72645 21.5881 8.71319 20.9057 9.1888Z" fill="#56AFBF"/>
<path d="M16.3563 9.93318C15.798 10.4915 15.6533 10.8017 15.6533 11.4427C15.6533 12.5801 15.86 12.6835 16.2943 11.7116C16.894 10.3674 17.0387 10.7397 16.5631 12.394C16.3563 13.0764 17.2869 12.394 17.6591 11.6082C17.9486 11.0085 17.9486 10.7603 17.7418 10.0573C17.6177 9.60232 17.3903 9.2301 17.2869 9.2301C17.1628 9.2301 16.7492 9.54029 16.3563 9.93318Z" fill="#56AFBF"/>
<path d="M10.8144 10.2848C10.5249 11.815 10.7937 12.6835 11.7656 13.2625L12.4067 13.6347L12.2619 13.1384C12.1999 12.8696 12.0758 12.3527 12.0138 12.0218C11.9104 11.4428 11.9517 11.4841 12.4894 12.332L13.0477 13.2418L13.2545 12.5801C13.5026 11.6909 13.0063 10.6156 12.0965 10.0573C11.1659 9.49899 10.9798 9.54034 10.8144 10.2848Z" fill="#56AFBF"/>
<path d="M2.79115 11.8357C2.08808 12.2079 2.0674 12.4147 2.66708 12.8283C3.24609 13.2419 4.07323 13.2419 4.61088 12.849C4.9831 12.5595 4.96242 12.5595 4.34206 12.5388C3.51491 12.5388 3.41152 12.1252 4.23866 12.1252C4.77631 12.1045 4.77631 12.1045 4.40409 11.815C3.88713 11.4221 3.51491 11.4428 2.79115 11.8357Z" fill="#56AFBF"/>
<path d="M23.0976 11.815C22.8702 12.0838 22.9322 12.1252 23.3871 12.1252C23.718 12.1252 23.9041 12.2079 23.8214 12.332C23.7594 12.4354 23.4905 12.5388 23.2424 12.5388C22.7875 12.5594 22.7875 12.5594 23.1803 12.8489C23.7387 13.2832 24.4004 13.2418 24.9794 12.7456L25.4757 12.332L24.9794 11.9184C24.4211 11.4221 23.4699 11.3808 23.0976 11.815Z" fill="#56AFBF"/>
<path d="M5.45853 13.3038C5.21038 13.5313 5.2931 15.1235 5.56192 15.3924C5.97549 15.8059 6.14092 15.6612 6.01685 14.9581L5.91346 14.2964L6.28567 14.9168L6.65789 15.5371L6.71993 14.834C6.80264 13.9449 5.89278 12.8489 5.45853 13.3038Z" fill="#56AFBF"/>
<path d="M21.2571 13.6968C20.8229 14.2344 20.6781 15.0202 20.9676 15.3097C21.0503 15.3717 21.2158 15.1856 21.3605 14.8755L21.6087 14.2964L21.65 15.0202L21.6707 15.744L22.0636 15.2477C22.5185 14.71 22.5806 14.1517 22.2704 13.552C21.9809 13.0144 21.7534 13.0557 21.2571 13.6968Z" fill="#56AFBF"/>
<path d="M0.516432 13.5107C0.0615008 13.6141 0.0615008 13.6554 0.454396 14.3999C0.86797 15.2063 1.86055 15.7026 2.66702 15.5372L3.28738 15.3924L2.50159 14.8962C1.67444 14.3999 1.92258 14.2138 2.91516 14.6067C3.59756 14.8548 3.59756 14.6067 2.93584 13.9036C2.43955 13.3659 1.57105 13.2212 0.516432 13.5107Z" fill="#56AFBF"/>
<path d="M24.938 13.6347C24.7519 13.7795 24.5038 14.0897 24.3797 14.3378C24.1316 14.7721 24.1522 14.7927 24.7519 14.586C25.7445 14.2344 25.972 14.5032 25.0621 14.9582L24.2556 15.3924L24.9173 15.5372C25.7238 15.7026 26.675 15.2063 27.192 14.3378C27.5022 13.8415 27.5022 13.7381 27.2334 13.5727C26.7991 13.2832 25.3309 13.3246 24.938 13.6347Z" fill="#56AFBF"/>
<path d="M7.7126 14.5239C7.46445 15.165 7.58852 16.1989 7.96074 16.5298C8.51906 17.0467 8.62246 16.964 8.39499 16.2196C8.14685 15.3097 8.31228 15.2477 8.76721 16.0955L9.13943 16.7779L9.20146 16.0955C9.2635 15.3924 8.89128 14.7721 8.18821 14.3792C7.94006 14.2551 7.79531 14.2964 7.7126 14.5239Z" fill="#56AFBF"/>
<path d="M18.9618 14.7514C18.4242 15.2477 18.3208 15.4545 18.3828 16.0541L18.4655 16.7779L18.7343 16.1989C19.1272 15.4545 19.3961 15.4751 19.1686 16.2609C18.9618 16.964 19.1479 17.0674 19.6442 16.5091C20.0164 16.0955 20.1198 14.5032 19.789 14.2964C19.6856 14.2344 19.3134 14.4412 18.9618 14.7514Z" fill="#56AFBF"/>
<path d="M10.3801 16.4677C10.194 17.0467 10.4422 17.6671 10.9178 17.9359C11.29 18.122 11.3107 18.1013 11.1866 17.5637C11.0625 17.0054 11.0625 17.0054 11.3727 17.3983C11.7036 17.8118 11.7036 17.7912 11.7243 17.2535C11.7243 16.8399 11.5588 16.6125 11.1246 16.3643C10.5456 16.0748 10.5042 16.0748 10.3801 16.4677Z" fill="#56AFBF"/>
<path d="M16.4598 16.323C16.1289 16.4884 15.9428 16.7779 15.9015 17.1915C15.8601 17.7911 15.8601 17.7911 16.191 17.3983C16.5218 17.0054 16.5218 17.0054 16.3978 17.5637C16.2737 18.0806 16.2944 18.122 16.6666 17.9359C17.0802 17.7084 17.3076 17.2742 17.3076 16.6745C17.3076 16.1368 17.0595 16.0335 16.4598 16.323Z" fill="#56AFBF"/>
<path d="M0.537107 17.7498C-0.248684 18.5769 -0.165969 19.0319 0.743894 19.1146C1.73647 19.218 2.37751 19.0112 2.64633 18.5149C2.93584 17.9566 2.81176 17.8532 2.10869 18.122C1.30222 18.4322 1.2195 18.2254 1.98462 17.7498C2.70837 17.3155 2.62566 17.0881 1.73647 17.0881C1.3229 17.0881 0.950681 17.2949 0.537107 17.7498Z" fill="#56AFBF"/>
<path d="M25.1035 17.2328C25.0208 17.2949 25.2482 17.543 25.5998 17.7498C26.3649 18.2254 26.2822 18.4322 25.4757 18.122C24.6899 17.8325 24.5865 18.0186 25.1655 18.639C25.5171 19.0112 25.8686 19.1559 26.4269 19.1559C27.709 19.1559 27.8951 19.0112 27.5436 18.3288C27.3781 17.9979 27.0266 17.5844 26.7785 17.4189C26.3028 17.0881 25.3516 16.9847 25.1035 17.2328Z" fill="#56AFBF"/>
<path d="M3.88703 18.5976C3.24599 18.9078 2.54291 20.0865 2.70834 20.5207C2.99785 21.2858 5.52065 20.3139 5.52065 19.4247C5.52065 19.0732 5.43793 19.0939 4.6935 19.4661C3.94907 19.859 3.86635 19.5488 4.59011 19.0732C5.562 18.4322 4.96232 18.0393 3.88703 18.5976Z" fill="#56AFBF"/>
<path d="M22.4772 18.4322C22.4772 18.4942 22.7874 18.8251 23.1596 19.1766L23.8213 19.797L22.9528 19.3627C22.3117 19.0526 22.0636 19.0112 22.0636 19.218C22.0636 20.0865 23.7593 21.017 24.7312 20.6448L25.1654 20.5001L24.7518 19.6522C24.5037 19.1766 24.0901 18.701 23.8006 18.5563C23.263 18.3288 22.4772 18.2461 22.4772 18.4322Z" fill="#56AFBF"/>
<path d="M6.65805 19.4248C5.99633 19.9831 5.66547 21.6374 6.20312 21.6374C7.15434 21.6374 8.20895 20.6035 8.20895 19.6729C8.20895 19.218 8.02284 19.28 7.54723 19.9004C7.00959 20.5828 6.84416 20.3967 7.27841 19.5902C7.65063 18.8251 7.40248 18.7631 6.65805 19.4248Z" fill="#56AFBF"/>
<path d="M20.3059 19.5902C20.7402 20.3967 20.5747 20.5828 20.0371 19.9004C19.5615 19.28 19.3754 19.218 19.3754 19.6729C19.3754 20.3346 19.9957 21.1825 20.6368 21.4099C21.588 21.7408 21.65 21.7201 21.65 20.9343C21.65 19.9417 21.4846 19.5902 20.8022 19.2593C19.9957 18.8251 19.9337 18.8664 20.3059 19.5902Z" fill="#56AFBF"/>
<path d="M3.08059 30.7154L2.60498 31.3771L3.70095 31.2117C5.29321 30.9635 9.36692 31.0462 10.6697 31.3151C11.29 31.4598 11.8277 31.5425 11.869 31.5012C11.9104 31.4598 11.166 31.1496 10.2354 30.8394C8.84995 30.3638 8.04348 30.2398 6.03764 30.157L3.5562 30.0743L3.08059 30.7154Z" fill="#56AFBF"/>
<path d="M18.8585 30.4259C17.6178 30.7154 15.219 31.6666 16.315 31.4598C19.1066 30.9222 22.9322 30.8394 24.7106 31.2944L25.2275 31.4184L24.7312 30.7567L24.2556 30.1157L22.1878 30.1364C21.0298 30.157 19.5409 30.2811 18.8585 30.4259Z" fill="#56AFBF"/>
<path d="M18.0726 31.7907C17.2041 31.8941 15.9014 32.2042 15.1776 32.4524L13.8955 32.928L12.448 32.411C11.1246 31.9354 10.6903 31.8941 7.58853 31.8734C3.30804 31.8734 2.35682 32.0181 2.02596 32.7419C1.79849 33.2589 1.79849 33.2589 2.35682 33.1555C4.48672 32.7005 6.1617 32.5558 8.82925 32.6385C11.7449 32.7212 11.8483 32.7419 12.386 33.2795C12.6755 33.569 13.1718 33.8792 13.4613 33.9619C14.123 34.1274 15.1569 33.7345 15.5498 33.1555C15.8393 32.7626 16.1082 32.7212 19.0445 32.6385C21.8775 32.5558 23.6972 32.7005 25.5376 33.1555C25.9719 33.2589 25.9926 33.2382 25.7651 32.7419C25.6204 32.3903 25.3102 32.1836 24.8759 32.1008C24.1315 31.9561 20.2025 31.5632 19.8924 31.6046C19.789 31.6046 18.9618 31.7079 18.0726 31.7907Z" fill="#56AFBF"/>
</svg>
