<svg width="32" height="32" viewBox="0 0 32 32" fill="none" xmlns="http://www.w3.org/2000/svg">
<rect width="31.5531" height="32" rx="15.7766" fill="white"/>
<path d="M15.2977 4.41395C14.9766 4.93943 14.9182 5.56709 15.1518 6.00499C15.3999 6.45749 15.5897 6.32612 15.5897 5.68387C15.5897 5.33354 15.6481 5.12919 15.7356 5.18758C15.8232 5.23137 15.8816 5.5233 15.8816 5.81524L15.8962 6.35532L16.1735 6.00499C16.5385 5.58169 16.5385 5.17298 16.2027 4.53072C15.8378 3.85927 15.6481 3.83008 15.2977 4.41395Z" fill="#003943"/>
<path d="M13.4878 5.65467C13.3126 6.10717 13.4148 6.83701 13.7067 7.21653C14.0424 7.63983 14.5095 7.74201 14.3636 7.36249C14.3198 7.23112 14.2322 6.95378 14.1884 6.74943C14.1154 6.39911 14.1592 6.4283 14.4657 6.8954C14.8453 7.49387 15.0058 7.47927 15.0058 6.8662C15.0058 6.35532 14.5387 5.77145 13.9986 5.58169C13.6483 5.46492 13.5461 5.47951 13.4878 5.65467Z" fill="#003943"/>
<path d="M17.2391 5.69845C16.699 6.01958 16.4655 6.39909 16.4655 6.92458C16.4655 7.45006 16.699 7.40627 16.9909 6.8224C17.1369 6.57425 17.2683 6.42829 17.2975 6.53046C17.3267 6.63264 17.2975 6.837 17.2099 6.99756C16.845 7.65441 17.1515 7.80038 17.7062 7.23111C18.0711 6.88079 18.1879 6.16555 17.9835 5.64006C17.8667 5.34813 17.8084 5.34813 17.2391 5.69845Z" fill="#003943"/>
<path d="M10.7144 5.65469C10.4954 5.87364 10.6414 6.69106 10.9333 6.9538C11.2544 7.23114 11.2544 7.23114 11.1523 6.82243C11.1085 6.60348 11.0939 6.42832 11.1231 6.42832C11.1669 6.42832 11.2982 6.60348 11.415 6.82243L11.634 7.23114L11.6486 6.70566C11.6486 6.38453 11.5464 6.09259 11.4004 5.96122C11.0209 5.64009 10.8311 5.55251 10.7144 5.65469Z" fill="#003943"/>
<path d="M20.1876 5.91741C19.8373 6.26774 19.6475 7.28951 19.9687 7.08516C20.0563 7.04137 20.1146 6.90999 20.1146 6.79322C20.1146 6.67645 20.1876 6.54508 20.2752 6.48669C20.4066 6.4137 20.4212 6.50129 20.3482 6.77862C20.246 7.21653 20.2898 7.24572 20.6109 6.92459C20.8737 6.67645 20.9321 5.5525 20.6985 5.5525C20.6109 5.5525 20.3774 5.71306 20.1876 5.91741Z" fill="#003943"/>
<path d="M12.32 6.45751C12.0573 6.82243 12.0135 7.4063 12.2324 7.74203C12.3492 7.91719 12.3784 7.8734 12.3784 7.55227C12.3784 7.07058 12.6265 7.02679 12.7141 7.47929C12.7725 7.81501 12.7725 7.81501 12.9185 7.45009C13.0206 7.21654 13.0206 6.9538 12.9331 6.69106C12.7287 6.13638 12.5827 6.078 12.32 6.45751Z" fill="#003943"/>
<path d="M18.6696 6.3845C18.4506 6.8224 18.4652 7.52305 18.7134 7.7274C18.8885 7.87337 18.9323 7.82958 18.9907 7.42087L19.0491 6.93918L19.0637 7.42087C19.0783 7.69821 19.1513 7.87337 19.2388 7.81498C19.487 7.66902 19.3994 6.77861 19.1075 6.41369L18.8447 6.07797L18.6696 6.3845Z" fill="#003943"/>
<path d="M9.50284 7.11434C9.19631 7.23111 9.66341 7.96095 10.1743 8.1799C10.7728 8.42805 11.0939 8.20909 10.5392 7.91716C10.3057 7.80039 10.1889 7.66901 10.2911 7.63982C10.3932 7.61063 10.5976 7.65442 10.7582 7.742C11.1523 7.94635 11.1669 7.69821 10.7728 7.3041C10.4954 7.02676 9.91155 6.93918 9.50284 7.11434Z" fill="#003943"/>
<path d="M20.7861 7.31869C20.3336 7.66901 20.2753 7.97554 20.7132 7.74199C20.8737 7.65441 21.0781 7.61062 21.1803 7.63982C21.2824 7.66901 21.1657 7.80038 20.9175 7.93175C20.5818 8.10691 20.5234 8.1799 20.7132 8.25288C21.2386 8.45723 22.348 7.58143 22.0853 7.15812C21.9247 6.90998 21.1949 6.99756 20.7861 7.31869Z" fill="#003943"/>
<path d="M15.5313 8.54483C15.4291 9.33306 15.4583 9.87314 15.6627 10.9533C15.8086 11.7123 15.9546 12.7633 15.9984 13.2742C16.0568 14.1646 15.8086 15.4783 15.5897 15.4783C15.3999 15.4783 13.444 13.3618 13.1958 12.8655C13.0499 12.5881 12.8747 11.7707 12.8017 10.9241C12.6557 9.46443 12.466 8.80757 12.0281 8.2529C11.8091 7.99016 11.8091 8.01935 12.0281 8.61782C12.1449 8.98274 12.3054 10.0629 12.3638 11.0263C12.4368 12.0043 12.5536 12.9385 12.6557 13.1136C12.7433 13.2888 12.7871 13.4347 12.7287 13.4347C12.4368 13.4347 10.5684 12.3108 9.89696 11.7269C9.45905 11.3474 9.19631 11.1577 9.29849 11.3182C9.91155 12.1648 10.7144 12.8217 12.1595 13.6975C13.9257 14.7485 14.4803 15.2447 14.8745 16.1351C15.1226 16.6752 15.254 17.6678 15.0788 17.6678C15.035 17.6678 14.5387 17.4343 13.9841 17.1569C13.4294 16.8796 12.4806 16.4855 11.8821 16.2957C10.5392 15.8578 10.0575 15.6097 9.35688 14.9966L8.8168 14.5295L9.13793 14.9966C9.32768 15.2593 9.64881 15.5951 9.85317 15.7702C10.0575 15.9308 10.2035 16.0914 10.1743 16.1206C10.1159 16.1789 8.88978 15.9892 8.3643 15.8286C8.17454 15.7702 8.11615 15.7848 8.21833 15.887C8.42268 16.0768 9.59043 16.4271 11.0647 16.7336C14.0424 17.3467 15.0058 18.2517 15.2248 20.6601C15.3124 21.6527 15.0934 25.3603 14.9474 25.5209C14.9036 25.5647 14.4803 25.3895 13.9986 25.1268C13.0061 24.6013 11.1669 24.0904 10.2619 24.0904C9.7072 24.0904 9.16712 24.3969 9.16712 24.718C9.16712 24.7764 9.67801 24.8202 10.3057 24.8202C12.1157 24.8202 14.9328 25.7106 15.5751 26.4843C15.7357 26.6886 15.8232 26.6594 16.2903 26.2945C17.3997 25.4333 19.56 24.8202 21.4722 24.8202H22.4794L22.275 24.4991C21.8225 23.813 19.8374 24.0612 17.8084 25.0538C17.2099 25.3457 16.7136 25.5501 16.6845 25.5209C16.4801 25.3311 16.3049 23.0394 16.3487 21.4046C16.3925 19.7989 16.4509 19.4048 16.7136 18.9085C17.3851 17.6386 18.2755 17.1423 20.7569 16.646C22.1582 16.3687 23.6179 15.887 23.6179 15.7118C23.6179 15.6826 23.3406 15.741 23.0048 15.8286C22.6545 15.9308 22.1144 16.0622 21.8079 16.106L21.2386 16.1935L21.8079 15.5805C22.6545 14.6901 22.9027 14.296 22.2312 14.909C21.516 15.5659 21.0927 15.7848 19.6038 16.2665C18.9615 16.4855 18.0128 16.8796 17.5019 17.1569C16.5531 17.6678 16.3195 17.697 16.3195 17.2591C16.3195 16.0476 17.2975 14.8798 19.2535 13.7121C20.6986 12.8655 21.6765 12.0772 22.1874 11.3474C22.4648 10.9533 22.3918 10.9825 21.7495 11.5664C21.0635 12.1794 19.3994 13.2158 19.2973 13.099C19.2681 13.0698 19.3265 12.8071 19.414 12.5006C19.5454 12.0918 19.5454 11.6685 19.4286 10.8219C19.2535 9.68338 19.3557 8.79298 19.6914 8.13612C19.8082 7.93177 19.8082 7.87338 19.6914 7.94637C19.6038 8.00475 19.3849 8.32588 19.2243 8.66161C18.947 9.18709 18.9178 9.40604 19.0199 10.5592C19.1075 11.7707 19.0929 11.9021 18.728 12.6319C18.4069 13.3034 17.1661 14.6025 16.845 14.6025C16.8012 14.6025 16.7574 14.15 16.7574 13.5807C16.7574 12.8655 16.6553 12.2962 16.4071 11.6393C16.086 10.7781 15.794 9.31846 15.6919 8.03395C15.6627 7.66903 15.6189 7.81499 15.5313 8.54483Z" fill="#003943"/>
<path d="M13.4877 8.12154C13.2834 8.63243 13.4001 9.58122 13.6921 9.90235C13.9986 10.2235 14.2759 10.3257 14.2759 10.1067C14.2759 10.0483 14.2176 9.78557 14.1446 9.52283C13.9694 8.95356 14.1738 9.02654 14.5095 9.6688C14.6847 10.0191 14.7722 10.0775 14.8744 9.91694C15.2101 9.37686 14.8014 8.53025 13.984 8.10694C13.6191 7.91719 13.5607 7.91719 13.4877 8.12154Z" fill="#003943"/>
<path d="M17.3851 8.17993C16.6845 8.60324 16.4071 9.09953 16.5385 9.74179L16.6407 10.2965L16.918 9.75638C17.064 9.46445 17.2537 9.17251 17.3413 9.12872C17.5311 9.01195 17.5311 9.05574 17.2683 9.77098L17.064 10.3694L17.3851 10.2089C17.896 9.93154 18.0566 9.61041 18.0712 8.90977C18.0712 7.97558 17.9398 7.82961 17.3851 8.17993Z" fill="#003943"/>
<path d="M8.52484 8.64701C8.34968 9.34765 8.43726 9.87314 8.78758 10.2089L9.1379 10.5446L9.07951 9.90233C9.02113 9.27467 9.02113 9.27467 9.19629 9.74176C9.38605 10.311 9.56121 10.3548 9.69258 9.87314C9.79475 9.46443 9.42984 8.6908 9.03572 8.47185C8.64161 8.26749 8.62701 8.28209 8.52484 8.64701Z" fill="#003943"/>
<path d="M22.4064 8.48642C22.0415 8.69078 21.7203 9.5082 21.8225 9.90231C21.9101 10.2526 22.1582 10.3402 22.1582 10.0337C22.1582 9.9315 22.2604 9.71255 22.3772 9.55199C22.5086 9.37682 22.5669 9.36223 22.5378 9.4936C22.5086 9.61037 22.4356 9.90231 22.3918 10.1213C22.3042 10.4862 22.3188 10.5154 22.5815 10.384C23.0048 10.1505 23.2238 9.36223 23.0194 8.79295C22.8443 8.28207 22.8005 8.25287 22.4064 8.48642Z" fill="#003943"/>
<path d="M10.583 9.01192C10.4078 9.18708 10.4808 9.33305 10.8311 9.56659C11.0209 9.69796 11.2836 9.74175 11.4296 9.69796C11.6486 9.61038 11.6486 9.58119 11.342 9.40603L10.9917 9.21627L11.3274 9.20167C11.5172 9.20167 11.6194 9.14329 11.5756 9.05571C11.4734 8.89514 10.729 8.85135 10.583 9.01192Z" fill="#003943"/>
<path d="M19.8957 9.05572C19.8519 9.1433 19.9541 9.20168 20.1293 9.20168C20.4504 9.20168 20.4504 9.20168 20.1731 9.42064C19.9103 9.62499 19.9249 9.62499 20.3482 9.63959C20.8299 9.63959 21.224 9.31846 21.0635 9.05572C20.9467 8.86596 20.0125 8.86596 19.8957 9.05572Z" fill="#003943"/>
<path d="M6.80246 10.3256C6.48133 10.4132 6.48133 10.4424 6.78786 10.9679C7.09439 11.4934 7.75125 11.7707 8.18915 11.581C8.49568 11.435 8.49568 11.435 8.02858 11.1868C7.44471 10.8949 7.4885 10.7343 8.07237 10.9533C8.62705 11.1576 8.70004 11.0263 8.29133 10.5884C7.9556 10.238 7.47391 10.1505 6.80246 10.3256Z" fill="#003943"/>
<path d="M23.18 10.5884C22.7713 11.0263 22.8443 11.1576 23.399 10.9533C23.9682 10.7343 23.9974 10.8657 23.4573 11.216C23.0048 11.4934 23.0048 11.508 23.3114 11.6101C23.7785 11.7561 24.4791 11.4204 24.7273 10.9095C25.0046 10.384 24.844 10.2235 24.0412 10.2235C23.6763 10.2235 23.4282 10.3256 23.18 10.5884Z" fill="#003943"/>
<path d="M10.1889 10.9241C10.1889 11.435 10.3933 11.8291 10.656 11.8291C10.7144 11.8291 10.6998 11.6685 10.6268 11.4642C10.4516 11.0117 10.6706 10.9825 10.8895 11.4204C11.0355 11.7415 11.0501 11.7415 11.0501 11.3036C11.0647 10.8511 10.6998 10.3694 10.3641 10.3694C10.2619 10.3694 10.1889 10.603 10.1889 10.9241Z" fill="#003943"/>
<path d="M20.7569 10.4862C20.4796 10.6614 20.2315 11.2598 20.3336 11.508C20.4066 11.7269 20.465 11.6977 20.6402 11.3912L20.8591 11.0263L20.8007 11.4204C20.7278 11.8875 20.9175 11.9605 21.1365 11.5518C21.5014 10.8657 21.2386 10.1505 20.7569 10.4862Z" fill="#003943"/>
<path d="M17.5457 11.0117C17.1516 11.4058 17.0494 11.6247 17.0494 12.0772C17.0494 12.8801 17.1953 12.953 17.5019 12.267C17.9252 11.3182 18.0274 11.5809 17.6916 12.7487C17.5457 13.2304 18.2025 12.7487 18.4653 12.194C18.6696 11.7707 18.6696 11.5955 18.5237 11.0992C18.4361 10.7781 18.2755 10.5154 18.2025 10.5154C18.1149 10.5154 17.823 10.7343 17.5457 11.0117Z" fill="#003943"/>
<path d="M13.6337 11.2598C13.4294 12.34 13.6191 12.9531 14.3052 13.3618L14.7577 13.6245L14.6555 13.2742C14.6117 13.0844 14.5241 12.7195 14.4804 12.486C14.4074 12.0773 14.4366 12.1064 14.8161 12.7049L15.2102 13.3472L15.3562 12.8801C15.5313 12.2524 15.181 11.4934 14.5387 11.0993C13.8819 10.7052 13.7505 10.7344 13.6337 11.2598Z" fill="#003943"/>
<path d="M7.97021 12.3546C7.47392 12.6173 7.45932 12.7633 7.88263 13.0553C8.29134 13.3472 8.87521 13.3472 9.25472 13.0698C9.51747 12.8655 9.50287 12.8655 9.06497 12.8509C8.4811 12.8509 8.40811 12.559 8.99198 12.559C9.3715 12.5444 9.3715 12.5444 9.10876 12.34C8.74384 12.0627 8.4811 12.0773 7.97021 12.3546Z" fill="#003943"/>
<path d="M22.3042 12.34C22.1437 12.5298 22.1875 12.559 22.5086 12.559C22.7421 12.559 22.8735 12.6173 22.8151 12.7049C22.7713 12.7779 22.5816 12.8509 22.4064 12.8509C22.0853 12.8655 22.0853 12.8655 22.3626 13.0698C22.7567 13.3764 23.2238 13.3472 23.6325 12.9969L23.9829 12.7049L23.6325 12.413C23.2384 12.0627 22.567 12.0335 22.3042 12.34Z" fill="#003943"/>
<path d="M9.85313 13.3909C9.67797 13.5515 9.73635 14.6755 9.92611 14.8652C10.218 15.1572 10.3348 15.055 10.2472 14.5587L10.1743 14.0916L10.437 14.5295L10.6997 14.9674L10.7435 14.4711C10.8019 13.8434 10.1597 13.0698 9.85313 13.3909Z" fill="#003943"/>
<path d="M21.0051 13.6683C20.6985 14.0478 20.5964 14.6025 20.8007 14.8068C20.8591 14.8506 20.9759 14.7193 21.0781 14.5003L21.2532 14.0916L21.2824 14.6025L21.297 15.1134L21.5743 14.7631C21.8955 14.3835 21.9393 13.9894 21.7203 13.5661C21.516 13.1866 21.3554 13.2158 21.0051 13.6683Z" fill="#003943"/>
<path d="M6.36454 13.5369C6.04341 13.6099 6.04341 13.6391 6.32075 14.1646C6.61269 14.7339 7.31333 15.0842 7.8826 14.9674L8.32051 14.8653L7.76583 14.5149C7.18196 14.1646 7.35712 14.0332 8.05777 14.3106C8.53946 14.4857 8.53946 14.3106 8.07236 13.8143C7.72204 13.4348 7.10898 13.3326 6.36454 13.5369Z" fill="#003943"/>
<path d="M23.6033 13.6245C23.472 13.7267 23.2968 13.9456 23.2092 14.1208C23.0341 14.4273 23.0487 14.4419 23.472 14.296C24.1726 14.0478 24.3332 14.2376 23.6909 14.5587L23.1216 14.8652L23.5887 14.9674C24.158 15.0842 24.8295 14.7339 25.1944 14.1208C25.4133 13.7705 25.4133 13.6975 25.2236 13.5807C24.917 13.3764 23.8807 13.4056 23.6033 13.6245Z" fill="#003943"/>
<path d="M11.4442 14.2522C11.2691 14.7047 11.3566 15.4345 11.6194 15.6681C12.0135 16.033 12.0865 15.9746 11.9259 15.4491C11.7507 14.8069 11.8675 14.7631 12.1887 15.3615L12.4514 15.8432L12.4952 15.3615C12.539 14.8652 12.2762 14.4273 11.7799 14.15C11.6048 14.0624 11.5026 14.0916 11.4442 14.2522Z" fill="#003943"/>
<path d="M19.3848 14.4127C19.0053 14.7631 18.9323 14.909 18.9761 15.3323L19.0345 15.8432L19.2243 15.4345C19.5016 14.909 19.6914 14.9236 19.5308 15.4783C19.3848 15.9746 19.5162 16.0476 19.8665 15.6535C20.1293 15.3615 20.2023 14.2376 19.9687 14.0916C19.8957 14.0478 19.633 14.1938 19.3848 14.4127Z" fill="#003943"/>
<path d="M13.3272 15.6243C13.1958 16.033 13.371 16.4709 13.7067 16.6606C13.9694 16.792 13.984 16.7774 13.8964 16.3979C13.8089 16.0038 13.8089 16.0038 14.0278 16.2811C14.2614 16.5731 14.2614 16.5585 14.276 16.1789C14.276 15.887 14.1592 15.7264 13.8527 15.5513C13.4439 15.3469 13.4148 15.3469 13.3272 15.6243Z" fill="#003943"/>
<path d="M17.6187 15.5221C17.3851 15.6389 17.2538 15.8432 17.2246 16.1352C17.1954 16.5585 17.1954 16.5585 17.4289 16.2811C17.6625 16.0038 17.6625 16.0038 17.5749 16.3979C17.4873 16.7628 17.5019 16.792 17.7646 16.6606C18.0566 16.5001 18.2171 16.1935 18.2171 15.7702C18.2171 15.3907 18.042 15.3177 17.6187 15.5221Z" fill="#003943"/>
<path d="M6.37914 16.5293C5.82446 17.1131 5.88285 17.4343 6.5251 17.4926C7.22575 17.5656 7.67825 17.4197 7.86801 17.0693C8.07236 16.6752 7.98478 16.6022 7.48849 16.792C6.91922 17.0109 6.86083 16.865 7.40091 16.5293C7.9118 16.2227 7.85341 16.0622 7.22575 16.0622C6.93381 16.0622 6.67107 16.2081 6.37914 16.5293Z" fill="#003943"/>
<path d="M23.7201 16.1644C23.6618 16.2081 23.8223 16.3833 24.0705 16.5293C24.6105 16.865 24.5522 17.011 23.9829 16.792C23.4282 16.5877 23.3552 16.719 23.7639 17.1569C24.0121 17.4197 24.2602 17.5219 24.6543 17.5219C25.5593 17.5219 25.6907 17.4197 25.4426 16.938C25.3258 16.7044 25.0776 16.4125 24.9025 16.2957C24.5668 16.0622 23.8953 15.9892 23.7201 16.1644Z" fill="#003943"/>
<path d="M8.74378 17.1277C8.29128 17.3467 7.79499 18.1787 7.91177 18.4852C8.11612 19.0253 9.89693 18.3392 9.89693 17.7116C9.89693 17.4634 9.83854 17.478 9.31306 17.7408C8.78757 18.0181 8.72919 17.7992 9.24007 17.4634C9.92612 17.0109 9.50282 16.7336 8.74378 17.1277Z" fill="#003943"/>
<path d="M21.8663 17.011C21.8663 17.0547 22.0852 17.2883 22.348 17.5364L22.8151 17.9743L22.202 17.6678C21.7495 17.4489 21.5743 17.4197 21.5743 17.5656C21.5743 18.1787 22.7713 18.8356 23.4573 18.5728L23.7639 18.4706L23.4719 17.8722C23.2968 17.5364 23.0048 17.2007 22.8005 17.0985C22.421 16.938 21.8663 16.8796 21.8663 17.011Z" fill="#003943"/>
<path d="M10.6998 17.7116C10.2327 18.1057 9.99917 19.2735 10.3787 19.2735C11.0501 19.2735 11.7946 18.5436 11.7946 17.8868C11.7946 17.5656 11.6632 17.6094 11.3275 18.0473C10.948 18.529 10.8312 18.3977 11.1377 17.8284C11.4005 17.2883 11.2253 17.2445 10.6998 17.7116Z" fill="#003943"/>
<path d="M20.3336 17.8284C20.6401 18.3977 20.5234 18.529 20.1439 18.0473C19.8081 17.6094 19.6768 17.5656 19.6768 17.8868C19.6768 18.3539 20.1147 18.9523 20.5672 19.1129C21.2386 19.3464 21.2824 19.3319 21.2824 18.7772C21.2824 18.0765 21.1656 17.8284 20.6839 17.5948C20.1147 17.2883 20.0709 17.3175 20.3336 17.8284Z" fill="#003943"/>
<path d="M8.17453 25.6814L7.83881 26.1485L8.61243 26.0318C9.73638 25.8566 12.6119 25.915 13.5315 26.1047C13.9694 26.2069 14.349 26.2653 14.3782 26.2361C14.4073 26.2069 13.8819 25.988 13.225 25.769C12.247 25.4333 11.6778 25.3457 10.2619 25.2873L8.51026 25.2289L8.17453 25.6814Z" fill="#003943"/>
<path d="M19.3119 25.4771C18.4361 25.6814 16.7429 26.3529 17.5165 26.2069C19.4871 25.8274 22.1875 25.769 23.4428 26.0901L23.8077 26.1777L23.4574 25.7106L23.1217 25.2581L21.662 25.2727C20.8446 25.2873 19.7936 25.3749 19.3119 25.4771Z" fill="#003943"/>
<path d="M18.7572 26.4405C18.1441 26.5134 17.2245 26.7324 16.7136 26.9076L15.8086 27.2433L14.7869 26.8784C13.8527 26.5426 13.5461 26.5134 11.3566 26.4989C8.33509 26.4989 7.66363 26.601 7.43009 27.1119C7.26952 27.4768 7.26952 27.4768 7.66363 27.4039C9.1671 27.0827 10.3494 26.9805 12.2324 27.0389C14.2906 27.0973 14.3635 27.1119 14.7431 27.4914C14.9474 27.6958 15.2977 27.9147 15.5021 27.9731C15.9692 28.0899 16.699 27.8126 16.9764 27.4039C17.1807 27.1265 17.3705 27.0973 19.4432 27.0389C21.443 26.9805 22.7275 27.0827 24.0266 27.4039C24.3331 27.4768 24.3477 27.4622 24.1872 27.1119C24.085 26.8638 23.866 26.7178 23.5595 26.6594C23.034 26.5572 20.2606 26.2799 20.0417 26.3091C19.9687 26.3091 19.3848 26.3821 18.7572 26.4405Z" fill="#003943"/>
</svg>
