<?xml version="1.0" standalone="no"?>
<!DOCTYPE svg PUBLIC "-//W3C//DTD SVG 20010904//EN"
 "http://www.w3.org/TR/2001/REC-SVG-20010904/DTD/svg10.dtd">
<svg version="1.0" xmlns="http://www.w3.org/2000/svg"
 width="193.000000pt" height="193.000000pt" viewBox="0 0 193.000000 193.000000"
 preserveAspectRatio="xMidYMid meet">

<g transform="translate(0.000000,193.000000) scale(0.100000,-0.100000)"
fill="#000000" stroke="none">
<path d="M930 1738 c-22 -36 -26 -79 -10 -109 17 -31 30 -22 30 22 0 24 4 38
10 34 6 -3 10 -23 10 -43 l1 -37 19 24 c25 29 25 57 2 101 -25 46 -38 48 -62
8z"/>
<path d="M806 1653 c-12 -31 -5 -81 15 -107 23 -29 55 -36 45 -10 -3 9 -9 28
-12 42 -5 24 -2 22 19 -10 26 -41 37 -40 37 2 0 35 -32 75 -69 88 -24 8 -31 7
-35 -5z"/>
<path d="M1063 1650 c-37 -22 -53 -48 -53 -84 0 -36 16 -33 36 7 10 17 19 27
21 20 2 -7 0 -21 -6 -32 -25 -45 -4 -55 34 -16 25 24 33 73 19 109 -8 20 -12
20 -51 -4z"/>
<path d="M616 1653 c-15 -15 -5 -71 15 -89 22 -19 22 -19 15 9 -3 15 -4 27 -2
27 3 0 12 -12 20 -27 l15 -28 1 36 c0 22 -7 42 -17 51 -26 22 -39 28 -47 21z"/>
<path d="M1265 1635 c-24 -24 -37 -94 -15 -80 6 3 10 12 10 20 0 8 5 17 11 21
9 5 10 -1 5 -20 -7 -30 -4 -32 18 -10 18 17 22 94 6 94 -6 0 -22 -11 -35 -25z"/>
<path d="M726 1598 c-18 -25 -21 -65 -6 -88 8 -12 10 -9 10 13 0 33 17 36 23
5 4 -23 4 -23 14 2 7 16 7 34 1 52 -14 38 -24 42 -42 16z"/>
<path d="M1161 1603 c-15 -30 -14 -78 3 -92 12 -10 15 -7 19 21 l4 33 1 -33
c1 -19 6 -31 12 -27 17 10 11 71 -9 96 l-18 23 -12 -21z"/>
<path d="M533 1553 c-21 -8 11 -58 46 -73 41 -17 63 -2 25 18 -16 8 -24 17
-17 19 7 2 21 -1 32 -7 27 -14 28 3 1 30 -19 19 -59 25 -87 13z"/>
<path d="M1306 1539 c-31 -24 -35 -45 -5 -29 11 6 25 9 32 7 7 -2 -1 -11 -18
-20 -23 -12 -27 -17 -14 -22 36 -14 112 46 94 75 -11 17 -61 11 -89 -11z"/>
<path d="M946 1455 c-7 -54 -5 -91 9 -165 10 -52 20 -124 23 -159 4 -61 -13
-151 -28 -151 -13 0 -147 145 -164 179 -10 19 -22 75 -27 133 -10 100 -23 145
-53 183 -15 18 -15 16 0 -25 8 -25 19 -99 23 -165 5 -67 13 -131 20 -143 6
-12 9 -22 5 -22 -20 0 -148 77 -194 117 -30 26 -48 39 -41 28 42 -58 97 -103
196 -163 121 -72 159 -106 186 -167 17 -37 26 -105 14 -105 -3 0 -37 16 -75
35 -38 19 -103 46 -144 59 -92 30 -125 47 -173 89 l-37 32 22 -32 c13 -18 35
-41 49 -53 14 -11 24 -22 22 -24 -4 -4 -88 9 -124 20 -13 4 -17 3 -10 -4 14
-13 94 -37 195 -58 204 -42 270 -104 285 -269 6 -68 -9 -322 -19 -333 -3 -3
-32 9 -65 27 -68 36 -194 71 -256 71 -38 0 -75 -21 -75 -43 0 -4 35 -7 78 -7
124 0 317 -61 361 -114 11 -14 17 -12 49 13 76 59 224 101 355 101 l69 0 -14
22 c-31 47 -167 30 -306 -38 -41 -20 -75 -34 -77 -32 -14 13 -26 170 -23 282
3 110 7 137 25 171 46 87 107 121 277 155 96 19 196 52 196 64 0 2 -19 -2 -42
-8 -24 -7 -61 -16 -82 -19 l-39 -6 39 42 c58 61 75 88 29 46 -49 -45 -78 -60
-180 -93 -44 -15 -109 -42 -144 -61 -65 -35 -81 -37 -81 -7 0 83 67 163 201
243 99 58 166 112 201 162 19 27 14 25 -30 -15 -47 -42 -161 -113 -168 -105
-2 2 2 20 8 41 9 28 9 57 1 115 -12 78 -5 139 18 184 8 14 8 18 0 13 -6 -4
-21 -26 -32 -49 -19 -36 -21 -51 -14 -130 6 -83 5 -92 -20 -142 -22 -46 -107
-135 -129 -135 -3 0 -6 31 -6 70 0 49 -7 88 -24 133 -22 59 -42 159 -49 247
-2 25 -5 15 -11 -35z"/>
<path d="M806 1484 c-14 -35 -6 -100 14 -122 21 -22 40 -29 40 -14 0 4 -4 22
-9 40 -12 39 2 34 25 -10 12 -24 18 -28 25 -17 23 37 -5 95 -61 124 -25 13
-29 13 -34 -1z"/>
<path d="M1073 1480 c-48 -29 -67 -63 -58 -107 l7 -38 19 37 c10 20 23 40 29
43 13 8 13 5 -5 -44 l-14 -41 22 11 c35 19 46 41 47 89 0 64 -9 74 -47 50z"/>
<path d="M466 1448 c-12 -48 -6 -84 18 -107 l24 -23 -4 44 c-4 43 -4 43 8 11
13 -39 25 -42 34 -9 7 28 -18 81 -45 96 -27 14 -28 13 -35 -12z"/>
<path d="M1417 1459 c-25 -14 -47 -70 -40 -97 6 -24 23 -30 23 -9 0 7 7 22 15
33 9 12 13 13 11 4 -2 -8 -7 -28 -10 -43 -6 -25 -5 -27 13 -18 29 16 44 70 30
109 -12 35 -15 37 -42 21z"/>
<path d="M607 1423 c-12 -12 -7 -22 17 -38 13 -9 31 -12 41 -9 15 6 15 8 -6
20 l-24 13 23 1 c13 0 20 4 17 10 -7 11 -58 14 -68 3z"/>
<path d="M1245 1420 c-3 -6 4 -10 16 -10 22 0 22 0 3 -15 -18 -14 -17 -14 12
-15 33 0 60 22 49 40 -8 13 -72 13 -80 0z"/>
<path d="M348 1333 c-22 -6 -22 -8 -1 -44 21 -36 66 -55 96 -42 21 10 21 10
-11 27 -40 20 -37 31 3 16 38 -14 43 -5 15 25 -23 24 -56 30 -102 18z"/>
<path d="M1470 1315 c-28 -30 -23 -39 15 -25 39 15 41 6 4 -18 -31 -19 -31
-20 -10 -27 32 -10 80 13 97 48 19 36 8 47 -47 47 -25 0 -42 -7 -59 -25z"/>
<path d="M580 1292 c0 -35 14 -62 32 -62 4 0 3 11 -2 25 -12 31 3 33 18 3 10
-22 11 -22 11 8 1 31 -24 64 -47 64 -7 0 -12 -16 -12 -38z"/>
<path d="M1304 1322 c-19 -12 -36 -53 -29 -70 5 -15 9 -13 21 8 l15 25 -4 -27
c-5 -32 8 -37 23 -9 25 47 7 96 -26 73z"/>
<path d="M1084 1286 c-27 -27 -34 -42 -34 -73 0 -55 10 -60 31 -13 29 65 36
47 13 -33 -10 -33 35 0 53 38 14 29 14 41 4 75 -6 22 -17 40 -22 40 -6 0 -26
-15 -45 -34z"/>
<path d="M816 1269 c-14 -74 -1 -116 46 -144 l31 -18 -7 24 c-3 13 -9 38 -12
54 -5 28 -3 26 23 -15 l27 -44 10 32 c12 43 -12 95 -56 122 -45 27 -54 25 -62
-11z"/>
<path d="M428 1194 c-34 -18 -35 -28 -6 -48 28 -20 68 -20 94 -1 18 14 17 14
-13 15 -40 0 -45 20 -5 20 26 1 26 1 8 15 -25 19 -43 18 -78 -1z"/>
<path d="M1410 1195 c-11 -13 -8 -15 14 -15 16 0 25 -4 21 -10 -3 -5 -16 -10
-28 -10 -22 -1 -22 -1 -3 -15 27 -21 59 -19 87 5 l24 20 -24 20 c-27 24 -73
26 -91 5z"/>
<path d="M557 1123 c-12 -11 -8 -88 5 -101 20 -20 28 -13 22 21 l-5 32 18 -30
18 -30 3 34 c4 43 -40 96 -61 74z"/>
<path d="M1321 1104 c-21 -26 -28 -64 -14 -78 4 -3 12 6 19 21 l12 28 2 -35 1
-35 19 24 c22 26 25 53 10 82 -14 26 -25 24 -49 -7z"/>
<path d="M318 1113 c-22 -5 -22 -7 -3 -43 20 -39 68 -63 107 -55 l30 7 -38 24
c-40 24 -28 33 20 14 33 -12 33 0 1 34 -24 26 -66 33 -117 19z"/>
<path d="M1499 1107 c-9 -7 -21 -22 -27 -34 -12 -21 -11 -22 18 -12 48 17 59
4 15 -18 l-39 -21 32 -7 c39 -8 85 16 110 58 15 24 15 29 2 37 -21 14 -92 12
-111 -3z"/>
<path d="M666 1064 c-12 -31 -6 -81 12 -97 27 -25 32 -21 21 15 -12 44 -4 47
18 6 l18 -33 3 33 c3 34 -15 64 -49 83 -12 6 -19 4 -23 -7z"/>
<path d="M1210 1053 c-26 -24 -31 -34 -28 -63 l4 -35 13 28 c19 36 32 35 21
-3 -10 -34 -1 -39 23 -12 18 20 23 97 7 107 -5 3 -23 -7 -40 -22z"/>
<path d="M795 970 c-9 -28 3 -58 26 -71 18 -9 19 -8 13 18 -6 27 -6 27 9 8 16
-20 16 -19 17 7 0 20 -8 31 -29 43 -28 14 -30 14 -36 -5z"/>
<path d="M1089 977 c-16 -8 -25 -22 -27 -42 -2 -29 -2 -29 14 -10 16 19 16 19
10 -8 -6 -25 -5 -27 13 -18 20 11 31 32 31 61 0 26 -12 31 -41 17z"/>
<path d="M319 908 c-38 -40 -34 -62 10 -66 48 -5 79 5 92 29 14 27 8 32 -26
19 -39 -15 -43 -5 -6 18 35 21 31 32 -12 32 -20 0 -38 -10 -58 -32z"/>
<path d="M1507 933 c-4 -3 7 -15 24 -25 37 -23 33 -33 -6 -18 -38 14 -43 5
-15 -25 17 -18 34 -25 61 -25 62 0 71 7 54 40 -8 16 -25 36 -37 44 -23 16 -69
21 -81 9z"/>
<path d="M481 867 c-31 -15 -65 -72 -57 -93 14 -37 136 10 136 53 0 17 -4 16
-40 -2 -36 -19 -40 -4 -5 19 47 31 18 50 -34 23z"/>
<path d="M1380 875 c0 -3 15 -19 33 -36 l32 -30 -42 21 c-31 15 -43 17 -43 7
0 -42 82 -87 129 -69 l21 7 -20 41 c-12 23 -32 46 -46 53 -26 11 -64 15 -64 6z"/>
<path d="M615 827 c-32 -27 -48 -107 -22 -107 46 0 97 50 97 95 0 22 -9 19
-32 -11 -26 -33 -34 -24 -13 15 18 37 6 40 -30 8z"/>
<path d="M1275 819 c21 -39 13 -48 -13 -15 -23 30 -32 33 -32 11 0 -32 30 -73
61 -84 46 -16 49 -15 49 23 0 48 -8 65 -41 81 -39 21 -42 19 -24 -16z"/>
<path d="M442 281 l-23 -32 53 8 c77 12 274 8 337 -5 30 -7 56 -11 58 -9 2 2
-34 17 -79 32 -67 23 -106 29 -203 33 l-120 4 -23 -31z"/>
<path d="M1205 295 c-60 -14 -176 -60 -123 -50 135 26 320 30 406 8 l25 -6
-24 32 -23 31 -100 -1 c-56 -1 -128 -7 -161 -14z"/>
<path d="M1167 229 c-42 -5 -105 -20 -140 -32 l-62 -23 -70 25 c-64 23 -85 25
-235 26 -207 0 -253 -7 -269 -42 -11 -25 -11 -25 16 -20 103 22 184 29 313 25
141 -4 146 -5 172 -31 14 -14 38 -29 52 -33 32 -8 82 11 101 39 14 19 27 21
169 25 137 4 225 -3 314 -25 21 -5 22 -4 11 20 -7 17 -22 27 -43 31 -36 7
-226 26 -241 24 -5 0 -45 -5 -88 -9z"/>
</g>
</svg>
